<?xml version="1.0" encoding="utf-8"?>
<!-- Generator: Adobe Illustrator 19.2.1, SVG Export Plug-In . SVG Version: 6.00 Build 0)  -->
<svg version="1.1" id="Layer_1" xmlns="http://www.w3.org/2000/svg" xmlns:xlink="http://www.w3.org/1999/xlink" x="0px" y="0px"
	 width="53px" height="51.6px" viewBox="0 0 53 51.6" style="enable-background:new 0 0 53 51.6;" xml:space="preserve">
<path d="M44,0.6c3-1.1,6.3-0.3,9,0c-3.2,6.7-3.8,18.2-1,26c-0.7,0-1.3,0-2,0c-24.3,4.6-22.7,7.3-33,13c3.3,3.7,6.7,7.3,10,11
	c0,0.3,0,0.7,0,1c-2,0-4,0-6,0c-2.7-2.7-5.3-5.3-8-8c-3,2.7-6,5.3-9,8c-1,0-2,0-3,0c0-1.3,0-2.7,0-4c2.3-2.3,4.7-4.7,7-7
	c-3.2-3.9-8-8.8-8-9c0-1.6,0.1-4.3,0-7c0.3,0,0.7,0,1,0c4,3.7,8,7.3,12,11C16.9,16.2,27.3,8.4,44,0.6z"/>
</svg>
