<?xml version="1.0" encoding="utf-8"?>
<!-- Generator: Adobe Illustrator 19.2.1, SVG Export Plug-In . SVG Version: 6.00 Build 0)  -->
<svg version="1.1" id="Layer_1" xmlns="http://www.w3.org/2000/svg" xmlns:xlink="http://www.w3.org/1999/xlink" x="0px" y="0px"
	 width="55px" height="54.5px" viewBox="0 0 55 54.5" style="enable-background:new 0 0 55 54.5;" xml:space="preserve">
<g>
	<g>
		<path style="fill:#2D7538;" d="M29,0C17.7,8,6.4,17.2,0,30c-0.3,13.5,7.5,22.7,19,24c14.1,4.4,30.4-20.8,36-30
			C54.5,8.6,45.5-0.5,29,0z M38,17c-6,6.3-12,12.7-18,19c-3.3,0-6.7,0-10,0c0-3,0-6,0-9c6-6,12-12,18-18c3.3,0,6.7,0,10,0
			C38,11.7,38,14.3,38,17z"/>
	</g>
</g>
</svg>
