<?xml version="1.0" encoding="utf-8"?>
<!-- Generator: Adobe Illustrator 19.2.1, SVG Export Plug-In . SVG Version: 6.00 Build 0)  -->
<svg version="1.1" id="Layer_1" xmlns="http://www.w3.org/2000/svg" xmlns:xlink="http://www.w3.org/1999/xlink" x="0px" y="0px"
	 width="51px" height="52px" viewBox="0 0 51 52" style="enable-background:new 0 0 51 52;" xml:space="preserve">
<path style="fill:#258FD1;" d="M0,39c1.3,0,2.7,0,4,0c0,4.3,0,8.7,0,13c6,0,12,0,18,0c0-3.3,0-6.7,0-10c2.3,0,4.7,0,7,0
	c0,3.3,0,6.7,0,10c6,0,12,0,18,0c0-4.3,0-8.7,0-13c1.3,0,2.7,0,4,0c-3.2-2.2-6.8-5.2-10-7c0-1.7,0-3.3,0-5c1.7,0,4.3,0,6,0
	c-3.6-3.1-2-2-11-8c0-1.3,0-2.7,0-4c1.7,0,3.3,0,5,0c0-0.9-11-7-13-11c0-1.3,1-2.7,1-4c-2.3,0-4.7,0-7,0c-0.1,1.3,1.5,2.9,1,4
	c-2.2,4.5-13,10.3-13,11c1.7,0,3.3,0,5,0c0,1.5,0,3,0,4C4,27,4.9,26.1,4,27c2,0,4,0,6,0c0,2.1,0.2,4.3,0,5C-0.2,38.5,0,39,0,39"/>
</svg>
