<?xml version="1.0" encoding="utf-8"?>
<!-- Generator: Adobe Illustrator 19.2.1, SVG Export Plug-In . SVG Version: 6.00 Build 0)  -->
<svg version="1.1" id="Layer_1" xmlns="http://www.w3.org/2000/svg" xmlns:xlink="http://www.w3.org/1999/xlink" x="0px" y="0px"
	 width="53px" height="49px" viewBox="0 0 53 49" style="enable-background:new 0 0 53 49;" xml:space="preserve">
<path style="fill:#ED453B;" d="M15,29c-4.3-3-10.7-8-15-11c6.3,0,12.7,0,19,0c2.3-6,4.7-12,7-18c2.3,6,4.7,12,7,18
	c6.7,0,13.3,0,20,0c-5,3.3-10,6.7-15,10c2.3,7,4.7,14,7,21c-6-3.7-13-8.3-19-12c-6,4.1-11.8,7.9-18,12L15,29z"/>
</svg>
